<?xml version="1.0" encoding="UTF-8" standalone="no"?>
<svg
   xmlns:dc="http://purl.org/dc/elements/1.1/"
   xmlns:cc="http://creativecommons.org/ns#"
   xmlns:rdf="http://www.w3.org/1999/02/22-rdf-syntax-ns#"
   xmlns:svg="http://www.w3.org/2000/svg"
   xmlns="http://www.w3.org/2000/svg"
   xmlns:sodipodi="http://sodipodi.sourceforge.net/DTD/sodipodi-0.dtd"
   xmlns:inkscape="http://www.inkscape.org/namespaces/inkscape"
   width="18in"
   height="12in"
   viewBox="0 0 457.2 304.8"
   version="1.1"
   id="svg101"
   inkscape:version="1.0.1 (3bc2e813f5, 2020-09-07)"
   sodipodi:docname="logo.svg">
  <defs
     id="defs95">
    <rect
       x="62.835807"
       y="233.51221"
       width="322.03231"
       height="58.346116"
       id="rect25" />
  </defs>
  <sodipodi:namedview
     id="base"
     pagecolor="#000000"
     bordercolor="#666666"
     borderopacity="1.0"
     inkscape:pageopacity="0"
     inkscape:pageshadow="2"
     inkscape:zoom="0.49497475"
     inkscape:cx="456.63838"
     inkscape:cy="454.75064"
     inkscape:document-units="mm"
     inkscape:current-layer="layer1"
     inkscape:document-rotation="0"
     showgrid="false"
     units="in"
     inkscape:window-width="1920"
     inkscape:window-height="1001"
     inkscape:window-x="-9"
     inkscape:window-y="-9"
     inkscape:window-maximized="1" />
  <metadata
     id="metadata98">
    <rdf:RDF>
      <cc:Work
         rdf:about="">
        <dc:format>image/svg+xml</dc:format>
        <dc:type
           rdf:resource="http://purl.org/dc/dcmitype/StillImage" />
        <dc:title />
      </cc:Work>
    </rdf:RDF>
  </metadata>
  <g
     inkscape:label="Layer 1"
     inkscape:groupmode="layer"
     id="layer1">
    <g
       aria-label="KLABS"
       transform="matrix(9.0466632,0,0,8.8383977,-884.18726,-444.97754)"
       id="text10"
       style="font-style:normal;font-weight:normal;font-size:10.5833px;line-height:1.25;font-family:sans-serif;white-space:pre;shape-inside:url(#rect12);fill:#ffffff;fill-opacity:1;stroke:none">
      <path
         d="m 103.87565,62.040231 h -1.77799 v -8.46664 c 0.48683,0 1.0127,-0.04281 1.35843,0.309972 0.35277,0.345721 0.41956,0.981191 0.41956,1.468022 v 1.703912 h 2.34949 c 0.69145,0 1.28058,-0.253999 1.76741,-0.761998 0.48683,-0.507999 0.73025,-1.107719 0.73025,-1.799161 v -0.903344 h 1.778 v 0.903344 c 0,0.677331 -0.15522,1.315857 -0.46567,1.915577 -0.30339,0.592665 -0.72672,1.09008 -1.26999,1.492246 0.54327,0.402165 0.9666,0.903108 1.26999,1.502828 0.31045,0.592665 0.46567,1.224135 0.46567,1.894411 v 0.740831 h -1.778 V 61.2994 c 0,-0.691443 -0.24342,-1.291163 -0.73025,-1.799161 -0.48683,-0.507999 -1.07596,-0.761998 -1.76741,-0.761998 h -2.34949 z"
         style="font-style:normal;font-variant:normal;font-weight:normal;font-stretch:normal;font-family:Danube;-inkscape-font-specification:Danube;fill:#ffffff"
         id="path16"
         sodipodi:nodetypes="ccccscsssccscccsccssscc" />
      <path
         d="m 113.11486,57.817494 c 0,0.698498 0.24342,1.298218 0.73025,1.799161 0.48683,0.493887 1.0795,0.740831 1.77799,0.740831 h 3.55484 c 0.46566,0 0.42239,0.165805 0.74694,0.497415 0.33161,0.324555 2.57975,0.719665 2.57975,1.18533 h -6.88153 c -1.17121,0 -2.18015,-0.409221 -3.02682,-1.227663 -0.83961,-0.825497 -1.25941,-1.823855 -1.25941,-2.995074 v -4.243903 c 0.48683,0 0.90311,0.176388 1.24883,0.529165 0.35277,0.345721 0.52916,0.761998 0.52916,1.248829 z"
         style="font-style:normal;font-variant:normal;font-weight:normal;font-stretch:normal;font-family:Danube;-inkscape-font-specification:Danube;fill:#ffffff"
         id="path18"
         sodipodi:nodetypes="scssccscsccss" />
      <path
         d="m 126.78847,57.817494 v 4.222737 h -4.29682 q -1.75683,0 -3.02683,-1.227663 -1.25941,-1.238246 -1.25941,-2.995074 0,-1.756828 1.25941,-2.995074 1.27,-1.248829 3.02683,-1.248829 1.75683,0 3.02682,1.248829 1.27,1.238246 1.27,2.995074 z m -1.79916,2.539992 v -2.539992 q 0,-1.047746 -0.73025,-1.799161 -0.71967,-0.761997 -1.76741,-0.761997 -1.04775,0 -1.778,0.761997 -0.71966,0.751415 -0.71966,1.799161 0,1.047747 0.71966,1.799161 0.73025,0.740831 1.778,0.740831 z"
         style="font-style:normal;font-variant:normal;font-weight:normal;font-stretch:normal;font-family:Danube;-inkscape-font-specification:Danube;fill:#ffffff"
         id="path20" />
      <path
         d="m 129.39196,53.245509 v 0.328082 h 2.50824 q 1.76741,0 3.02682,1.238246 1.27,1.227663 1.27,2.984491 0,1.756827 -1.27,3.005657 -1.26999,1.238246 -3.02682,1.238246 -1.75683,0 -3.02682,-1.238246 -1.25942,-1.24883 -1.25942,-3.005657 v -6.328814 q 0.73025,0 1.24883,0.529165 0.52917,0.518582 0.52917,1.24883 z m 5.0059,4.550819 q 0,-1.047747 -0.73025,-1.788578 -0.71966,-0.751414 -1.76741,-0.751414 h -2.49766 v 2.539992 q 0,1.047746 0.71967,1.809744 0.73024,0.751414 1.77799,0.751414 1.04775,0 1.76741,-0.751414 0.73025,-0.761998 0.73025,-1.809744 z"
         style="font-style:normal;font-variant:normal;font-weight:normal;font-stretch:normal;font-family:Danube;-inkscape-font-specification:Danube;fill:#ffffff"
         id="path22" />
      <path
         d="m 139.07565,56.886164 q 0,-1.375829 0.98425,-2.338909 0.99483,-0.973664 2.38124,-0.973664 h 2.43416 q 0,0.709081 -0.49741,1.195913 -0.49742,0.486832 -1.2065,0.486832 h -0.37042 q -0.81491,0 -1.39699,0.592664 -0.5715,0.582082 -0.5715,1.407579 v 1.471079 q 0,1.375829 -0.98425,2.349492 -0.98424,0.963081 -2.37066,0.963081 h -2.43415 q 0,-0.698498 0.48683,-1.18533 0.49741,-0.497415 1.19591,-0.497415 h 0.381 q 0.8255,0 1.39699,-0.582081 0.5715,-0.592665 0.5715,-1.418163 z"
         style="font-style:normal;font-variant:normal;font-weight:normal;font-stretch:normal;font-family:Danube;-inkscape-font-specification:Danube;fill:#ffffff"
         id="path24" />
    </g>
    <g
       aria-label="AUDIO"
       transform="matrix(3.8791927,0,0,3.7898886,-16.183563,-123.28903)"
       id="text52"
       style="font-style:normal;font-weight:normal;font-size:25.4px;line-height:1.25;font-family:sans-serif;white-space:pre;shape-inside:url(#rect54);fill:#ffffff;fill-opacity:1;stroke:none">
      <path
         d="m 33.984165,71.394059 v 10.134599 h -10.3124 q -4.216399,0 -7.264399,-2.9464 -3.0226,-2.971799 -3.0226,-7.188199 0,-4.2164 3.0226,-7.1882 3.048,-2.9972 7.264399,-2.9972 4.2164,0 7.2644,2.9972 3.048,2.9718 3.048,7.1882 z m -4.318,6.096 v -6.096 q 0,-2.5146 -1.7526,-4.318 -1.7272,-1.8288 -4.2418,-1.8288 -2.514599,0 -4.267199,1.8288 -1.7272,1.8034 -1.7272,4.318 0,2.5146 1.7272,4.318 1.7526,1.778 4.267199,1.778 z"
         style="font-style:normal;font-variant:normal;font-weight:normal;font-stretch:normal;font-family:Danube;-inkscape-font-specification:Danube;fill:#ffffff"
         id="path62" />
      <path
         d="m 52.246764,71.343259 q 0,2.4892 -1.7526,4.318 -1.7526,1.8288 -4.2418,1.8288 -2.5146,0 -4.2672,-1.8034 -1.7526,-1.8288 -1.7526,-4.3434 v -5.8674 q 0,-1.7526 -1.27,-2.9972 -1.2446,-1.27 -2.9972,-1.27 v 10.1346 q 0,4.2164 3.0226,7.213599 3.0226,2.9718 7.2644,2.9718 4.2164,0 7.239,-2.9718 3.0226,-2.997199 3.0226,-7.213599 v -10.1346 q -1.7526,0 -3.0226,1.27 -1.2446,1.2446 -1.2446,2.9972 z"
         style="font-style:normal;font-variant:normal;font-weight:normal;font-stretch:normal;font-family:Danube;-inkscape-font-specification:Danube;fill:#ffffff"
         id="path64" />
      <path
         d="m 58.49514,71.394059 v 10.134599 h 10.287 q 4.2418,0 7.2644,-2.9464 3.048,-2.971799 3.048,-7.188199 0,-4.2164 -3.048,-7.1882 -3.048,-2.9972 -7.2644,-2.9972 -4.2164,0 -7.2644,2.9972 -3.0226,2.9718 -3.0226,7.1882 z m 4.2926,6.096 v -6.096 q 0,-2.5146 1.7272,-4.318 1.7526,-1.8288 4.2672,-1.8288 2.5146,0 4.2418,1.8288 1.7526,1.8034 1.7526,4.318 0,2.5146 -1.7526,4.318 -1.7272,1.778 -4.2418,1.778 z"
         style="font-style:normal;font-variant:normal;font-weight:normal;font-stretch:normal;font-family:Danube;-inkscape-font-specification:Danube;fill:#ffffff"
         id="path66" />
      <path
         d="m 85.012729,65.475859 q 0,-1.7526 -1.27,-2.9972 -1.2446,-1.27 -2.9972,-1.27 v 16.0528 q 0,1.752599 1.2446,3.022599 1.27,1.2446 3.0226,1.2446 z"
         style="font-style:normal;font-variant:normal;font-weight:normal;font-stretch:normal;font-family:Danube;-inkscape-font-specification:Danube;fill:#ffffff"
         id="path68" />
      <path
         d="m 97.38251,61.208659 q 4.2164,0 7.239,2.9972 3.048,2.9718 3.048,7.1882 0,4.2164 -3.048,7.188199 -3.0226,2.9464 -7.239,2.9464 -4.216399,0 -7.238999,-2.9464 -3.0226,-2.971799 -3.0226,-7.188199 0,-4.2164 3.0226,-7.1882 3.0226,-2.9972 7.238999,-2.9972 z m 0,4.0386 q -2.514599,0 -4.267199,1.8288 -1.7272,1.8034 -1.7272,4.318 0,2.5146 1.7272,4.318 1.7526,1.778 4.267199,1.778 2.5146,0 4.2672,-1.778 1.7526,-1.8034 1.7526,-4.318 0,-2.5146 -1.7526,-4.318 -1.7526,-1.8288 -4.2672,-1.8288 z"
         style="font-style:normal;font-variant:normal;font-weight:normal;font-stretch:normal;font-family:Danube;-inkscape-font-specification:Danube;fill:#ffffff"
         id="path70" />
    </g>
    <g
       id="g8"
       transform="matrix(0.49574198,0,0,0.48432936,109.13716,155.73713)"
       style="fill:#ffffff">
      <path
         d="m -93.398087,160.58303 h 92.99599997 c 24.26100003,0 43.99900003,-19.738 43.99900003,-43.999 0,-24.260997 -19.738,-43.998997 -43.99900003,-43.998997 H -93.398087 v 30.911997 h -42.884003 v 29.999 h 42.884003 z"
         id="path4"
         style="fill:#ffffff" />
      <path
         d="m 558.984,73.127 h -92.996 c -24.261,0 -43.999,19.738 -43.999,43.999 0,24.261 19.738,43.999 43.999,43.999 h 92.996 v -30.912 h 42.884 v -29.999 h -42.884 z"
         id="path6"
         style="fill:#ffffff" />
    </g>
    <rect
       style="fill:#ffffff;stroke-width:0.601713"
       id="rect93"
       width="169.79807"
       height="13.492033"
       x="140.49083"
       y="205.12334" />
    <g
       aria-label="V 1.0 RELEASE"
       transform="matrix(3.6598148,0,0,3.6598148,-167.13196,-621.61413)"
       id="text23"
       style="font-style:normal;font-weight:normal;font-size:10.5833px;line-height:1.25;font-family:sans-serif;white-space:pre;shape-inside:url(#rect25);fill:#ffffff;fill-opacity:1;stroke:none">
      <path
         d="m 62.835937,243.16718 h 4.275654 q 1.767411,0 3.026823,-1.22766 1.259413,-1.23824 1.259413,-2.99507 v -4.24391 q -0.730248,0 -1.259413,0.52917 -0.518581,0.51858 -0.518581,1.24883 v 2.46591 q 0,1.04774 -0.730248,1.79916 -0.730248,0.74083 -1.777994,0.74083 h -2.497659 v -5.0059 q 0,-0.73025 -0.529165,-1.24883 -0.518582,-0.52917 -1.24883,-0.52917 z"
         style="font-style:normal;font-variant:normal;font-weight:normal;font-stretch:normal;font-family:Danube;-inkscape-font-specification:Danube"
         id="path34" />
      <path
         d="m 78.689699,236.47854 q 0,-0.73025 -0.529165,-1.24883 -0.518581,-0.52917 -1.248829,-0.52917 v 8.46664 h 1.777994 z"
         style="font-style:normal;font-variant:normal;font-weight:normal;font-stretch:normal;font-family:Danube;-inkscape-font-specification:Danube"
         id="path36" />
      <path
         d="m 81.346102,242.55335 q 0,-0.73025 -0.529165,-1.24883 -0.518582,-0.52916 -1.248829,-0.52916 v 0.61383 q 0,0.73025 0.518581,1.25941 0.529165,0.51858 1.259413,0.51858 z"
         style="font-style:normal;font-variant:normal;font-weight:normal;font-stretch:normal;font-family:Danube;-inkscape-font-specification:Danube"
         id="path38" />
      <path
         d="m 86.489566,241.48444 q -1.047747,0 -1.777994,-0.75142 -0.719665,-0.76199 -0.719665,-1.80974 v -2.53999 h 5.005901 v 2.47649 q 0,1.04775 -0.740831,1.8415 -0.730248,0.78316 -1.767411,0.78316 z m 4.275653,-6.7839 h -8.551306 v 4.22274 q 0,1.75683 1.259413,3.00566 1.259412,1.23824 3.01624,1.23824 1.756828,0 3.01624,-1.23824 1.259413,-1.24883 1.259413,-3.00566 z"
         style="font-style:normal;font-variant:normal;font-weight:normal;font-stretch:normal;font-family:Danube;-inkscape-font-specification:Danube"
         id="path40" />
      <path
         d="m 98.057097,238.92328 q 0,-1.04775 0.730247,-1.78858 0.730248,-0.75141 1.777996,-0.75141 h 0.81491 q 0.6985,0 1.18533,-0.48683 0.49742,-0.49742 0.49742,-1.19592 h -2.49766 q -1.756829,0 -3.026825,1.23825 -1.259413,1.22766 -1.259413,2.98449 v 4.2439 q 0.730248,0 1.24883,-0.51858 0.529165,-0.52916 0.529165,-1.25941 z"
         style="font-style:normal;font-variant:normal;font-weight:normal;font-stretch:normal;font-family:Danube;-inkscape-font-specification:Danube"
         id="path42" />
      <path
         d="m 107.44447,243.16718 q -1.75683,0 -3.01624,-1.22766 -1.25941,-1.23824 -1.25941,-2.99507 0,-1.75683 1.25941,-2.99508 1.25941,-1.24883 3.01624,-1.24883 h 2.50824 q 0,0.6985 -0.49741,1.19592 -0.49742,0.48683 -1.19591,0.48683 h -0.81492 q -1.03716,0 -1.76741,0.762 -0.73025,0.76199 -0.73025,1.79916 0,1.03716 0.73025,1.78857 0.73025,0.75142 1.76741,0.75142 h 0.81492 q 0.69849,0 1.19591,0.49741 0.49741,0.48684 0.49741,1.18533 z m -0.59266,-5.0694 h 3.1009 q 0,0.6985 -0.49741,1.18533 -0.49742,0.48683 -1.19591,0.48683 h -1.40758 q -0.34925,0 -0.59267,-0.23283 -0.24341,-0.24341 -0.24341,-0.59266 0,-0.35983 0.23283,-0.60325 0.24342,-0.24342 0.60325,-0.24342 z"
         style="font-style:normal;font-variant:normal;font-weight:normal;font-stretch:normal;font-family:Danube;-inkscape-font-specification:Danube"
         id="path44" />
      <path
         d="m 112.28103,238.94445 q 0,1.04774 0.73025,1.79916 0.73025,0.74083 1.77799,0.74083 h 0.81492 q 0.69849,0 1.18533,0.49741 0.49741,0.48684 0.49741,1.18533 h -2.49766 q -1.75682,0 -3.02682,-1.22766 -1.25941,-1.23824 -1.25941,-2.99507 v -4.24391 q 0.73024,0 1.24883,0.52917 0.52916,0.51858 0.52916,1.24883 z"
         style="font-style:normal;font-variant:normal;font-weight:normal;font-stretch:normal;font-family:Danube;-inkscape-font-specification:Danube"
         id="path46" />
      <path
         d="m 121.64723,243.16718 q -1.75683,0 -3.01624,-1.22766 -1.25941,-1.23824 -1.25941,-2.99507 0,-1.75683 1.25941,-2.99508 1.25941,-1.24883 3.01624,-1.24883 h 2.50824 q 0,0.6985 -0.49741,1.19592 -0.49742,0.48683 -1.19591,0.48683 h -0.81492 q -1.03716,0 -1.76741,0.762 -0.73025,0.76199 -0.73025,1.79916 0,1.03716 0.73025,1.78857 0.73025,0.75142 1.76741,0.75142 h 0.81492 q 0.69849,0 1.19591,0.49741 0.49741,0.48684 0.49741,1.18533 z m -0.59266,-5.0694 h 3.1009 q 0,0.6985 -0.49741,1.18533 -0.49742,0.48683 -1.19591,0.48683 h -1.40758 q -0.34925,0 -0.59267,-0.23283 -0.24341,-0.24341 -0.24341,-0.59266 0,-0.35983 0.23283,-0.60325 0.24341,-0.24342 0.60325,-0.24342 z"
         style="font-style:normal;font-variant:normal;font-weight:normal;font-stretch:normal;font-family:Danube;-inkscape-font-specification:Danube"
         id="path48" />
      <path
         d="m 133.28885,238.94445 v 4.22273 h -4.29682 q -1.75683,0 -3.02683,-1.22766 -1.25941,-1.23824 -1.25941,-2.99507 0,-1.75683 1.25941,-2.99508 1.27,-1.24883 3.02683,-1.24883 1.75683,0 3.02682,1.24883 1.27,1.23825 1.27,2.99508 z m -1.79916,2.53999 v -2.53999 q 0,-1.04775 -0.73025,-1.79916 -0.71967,-0.762 -1.76741,-0.762 -1.04775,0 -1.778,0.762 -0.71966,0.75141 -0.71966,1.79916 0,1.04774 0.71966,1.79916 0.73025,0.74083 1.778,0.74083 z"
         style="font-style:normal;font-variant:normal;font-weight:normal;font-stretch:normal;font-family:Danube;-inkscape-font-specification:Danube"
         id="path50" />
      <path
         d="m 138.14659,238.01312 q 0,-1.37583 0.98424,-2.33891 0.99483,-0.97367 2.38125,-0.97367 h 2.43415 q 0,0.70909 -0.49741,1.19592 -0.49742,0.48683 -1.2065,0.48683 h -0.37041 q -0.81492,0 -1.397,0.59266 -0.5715,0.58209 -0.5715,1.40758 v 1.47108 q 0,1.37583 -0.98424,2.34949 -0.98425,0.96308 -2.37066,0.96308 h -2.43416 q 0,-0.69849 0.48683,-1.18533 0.49742,-0.49741 1.19591,-0.49741 h 0.381 q 0.8255,0 1.397,-0.58208 0.5715,-0.59267 0.5715,-1.41816 z"
         style="font-style:normal;font-variant:normal;font-weight:normal;font-stretch:normal;font-family:Danube;-inkscape-font-specification:Danube"
         id="path52" />
      <path
         d="m 148.43354,243.16718 q -1.75682,0 -3.01624,-1.22766 -1.25941,-1.23824 -1.25941,-2.99507 0,-1.75683 1.25941,-2.99508 1.25942,-1.24883 3.01624,-1.24883 h 2.50825 q 0,0.6985 -0.49742,1.19592 -0.49741,0.48683 -1.19591,0.48683 h -0.81492 q -1.03716,0 -1.76741,0.762 -0.73025,0.76199 -0.73025,1.79916 0,1.03716 0.73025,1.78857 0.73025,0.75142 1.76741,0.75142 h 0.81492 q 0.6985,0 1.19591,0.49741 0.49742,0.48684 0.49742,1.18533 z m -0.59266,-5.0694 h 3.10091 q 0,0.6985 -0.49742,1.18533 -0.49741,0.48683 -1.19591,0.48683 h -1.40758 q -0.34925,0 -0.59267,-0.23283 -0.24341,-0.24341 -0.24341,-0.59266 0,-0.35983 0.23283,-0.60325 0.24342,-0.24342 0.60325,-0.24342 z"
         style="font-style:normal;font-variant:normal;font-weight:normal;font-stretch:normal;font-family:Danube;-inkscape-font-specification:Danube"
         id="path54" />
    </g>
  </g>
</svg>
